<?xml version="1.0" encoding="utf-8"?>
<!-- Generator: Adobe Illustrator 15.0.0, SVG Export Plug-In . SVG Version: 6.00 Build 0)  -->
<!DOCTYPE svg PUBLIC "-//W3C//DTD SVG 1.1//EN" "http://www.w3.org/Graphics/SVG/1.1/DTD/svg11.dtd">
<svg version="1.1" id="Layer_1" xmlns="http://www.w3.org/2000/svg" xmlns:xlink="http://www.w3.org/1999/xlink" x="0px" y="0px"
	 width="44.366px" height="44.354px" viewBox="0 0 44.366 44.354" enable-background="new 0 0 44.366 44.354" xml:space="preserve">
<path fill="#383737" d="M22.183,44.368C9.931,44.368,0,34.437,0,22.185C0,9.933,9.931,0,22.183,0
	c12.251,0,22.183,9.933,22.183,22.185C44.366,34.437,34.435,44.368,22.183,44.368"/>
<path fill="#FFFFFF" d="M10.252,13.281l3.331-3.331c0.292-0.294,0.806-0.294,1.1,0l2.281,2.28l-4.429,4.431l-2.283-2.28
	C9.951,14.077,9.951,13.583,10.252,13.281"/>
<path fill="#FFFFFF" d="M33.417,32.188l-0.926,0.926l-3.205-0.753l3.379-3.379L33.417,32.188z M13.322,17.062
	c-0.106,0.107-0.123,0.297-0.015,0.403L28.551,32.71c0.001,0.002,0.003,0.002,0.003,0.002c0.005,0.004,0.01,0.006,0.014,0.009
	c0.029,0.026,0.062,0.042,0.101,0.054c0.006,0.002,0.008,0.007,0.015,0.008l3.831,0.899l1.491,0.35
	c0.021,0.004,0.042,0.007,0.062,0.007c0.071,0,0.141-0.028,0.193-0.08c0.066-0.066,0.094-0.165,0.072-0.256l-0.349-1.49l-0.9-3.832
	c0-0.005-0.006-0.009-0.008-0.015c-0.01-0.036-0.026-0.069-0.054-0.099c-0.003-0.005-0.005-0.011-0.01-0.014
	c-0.001-0.002-0.001-0.002-0.001-0.004L17.768,13.005c-0.106-0.106-0.277-0.106-0.385-0.001L13.322,17.062z"/>
<path fill="#383737" d="M31.565,28.734c0.075,0,0.147-0.027,0.205-0.085c0.113-0.113,0.113-0.299,0-0.412l-14.009-14.01
	c-0.114-0.113-0.298-0.113-0.411,0c-0.114,0.114-0.114,0.298,0,0.411l14.01,14.011C31.416,28.707,31.49,28.734,31.565,28.734z"/>
</svg>
