<?xml version="1.0" encoding="utf-8"?>
<!-- Generator: Adobe Illustrator 15.0.0, SVG Export Plug-In . SVG Version: 6.00 Build 0)  -->
<!DOCTYPE svg PUBLIC "-//W3C//DTD SVG 1.1//EN" "http://www.w3.org/Graphics/SVG/1.1/DTD/svg11.dtd">
<svg version="1.1" id="Layer_1" xmlns="http://www.w3.org/2000/svg" xmlns:xlink="http://www.w3.org/1999/xlink" x="0px" y="0px"
	 width="44.367px" height="44.354px" viewBox="57.687 0 44.367 44.354" enable-background="new 57.687 0 44.367 44.354"
	 xml:space="preserve">
<linearGradient id="SVGID_1_" gradientUnits="userSpaceOnUse" x1="57.687" y1="22.1843" x2="102.0542" y2="22.1843">
	<stop  offset="0" style="stop-color:#02AAB0"/>
	<stop  offset="1" style="stop-color:#00CDAC"/>
</linearGradient>
<path fill="url(#SVGID_1_)" d="M79.871,44.368c-12.252,0-22.184-9.932-22.184-22.184S67.619,0,79.871,0
	c12.251,0,22.184,9.933,22.184,22.185S92.123,44.368,79.871,44.368"/>
<path fill="#FFFFFF" d="M67.939,13.281l3.332-3.33c0.291-0.295,0.806-0.295,1.1,0l2.281,2.279l-4.43,4.432l-2.283-2.28
	C67.638,14.077,67.638,13.583,67.939,13.281"/>
<path fill="#FFFFFF" d="M91.671,32.213l-0.9-3.832c0-0.005-0.006-0.009-0.008-0.016c-0.01-0.035-0.025-0.068-0.054-0.099
	c-0.003-0.005-0.005-0.011-0.01-0.014c-0.001-0.002-0.001-0.002-0.001-0.004L75.456,13.005c-0.106-0.106-0.276-0.106-0.386-0.001
	l-4.061,4.058c-0.105,0.107-0.123,0.297-0.015,0.403L86.238,32.71c0.002,0.002,0.004,0.002,0.004,0.002
	c0.005,0.004,0.01,0.006,0.014,0.009c0.029,0.026,0.062,0.042,0.102,0.054c0.006,0.002,0.008,0.007,0.015,0.009l3.831,0.898
	l1.49,0.35c0.021,0.005,0.043,0.008,0.062,0.008c0.071,0,0.141-0.028,0.193-0.08c0.066-0.066,0.094-0.165,0.072-0.256L91.671,32.213
	z M75.038,14.638c-0.114-0.113-0.114-0.297,0-0.411c0.112-0.113,0.297-0.113,0.411,0l14.009,14.01c0.112,0.113,0.112,0.3,0,0.412
	c-0.058,0.059-0.13,0.085-0.205,0.085s-0.149-0.026-0.205-0.085L75.038,14.638z M90.179,33.114l-3.205-0.753l3.379-3.379
	l0.752,3.206L90.179,33.114z"/>
</svg>
