<?xml version="1.0" encoding="utf-8"?>
<!-- Generator: Adobe Illustrator 15.0.0, SVG Export Plug-In . SVG Version: 6.00 Build 0)  -->
<!DOCTYPE svg PUBLIC "-//W3C//DTD SVG 1.1//EN" "http://www.w3.org/Graphics/SVG/1.1/DTD/svg11.dtd">
<svg version="1.1" id="Layer_1" xmlns="http://www.w3.org/2000/svg" xmlns:xlink="http://www.w3.org/1999/xlink" x="0px" y="0px"
	 width="44.367px" height="44.354px" viewBox="0 0 44.367 44.354" enable-background="new 0 0 44.367 44.354" xml:space="preserve">
<path fill="#383737" d="M22.183,44.368C9.931,44.368,0,34.437,0,22.185S9.931,0,22.183,0c12.25,0,22.184,9.933,22.184,22.185
	S34.436,44.368,22.183,44.368"/>
<path fill="#FFFFFF" d="M10.251,13.281l3.332-3.329c0.291-0.296,0.806-0.296,1.1,0l2.281,2.278l-4.43,4.433l-2.283-2.28
	C9.951,14.077,9.951,13.583,10.251,13.281"/>
<path fill="#FFFFFF" d="M33.984,32.213l-0.9-3.832c0-0.005-0.006-0.009-0.008-0.017c-0.01-0.034-0.025-0.067-0.055-0.099
	c-0.002-0.005-0.004-0.011-0.01-0.014c0-0.002,0-0.002,0-0.004L17.768,13.005c-0.106-0.106-0.276-0.106-0.386-0.001l-4.061,4.058
	c-0.105,0.107-0.123,0.297-0.015,0.403L28.55,32.71c0.002,0.002,0.005,0.002,0.005,0.002c0.004,0.004,0.01,0.006,0.014,0.009
	c0.029,0.026,0.062,0.042,0.102,0.054c0.006,0.002,0.008,0.007,0.016,0.01l3.83,0.897l1.49,0.35
	c0.021,0.006,0.043,0.009,0.062,0.009c0.07,0,0.141-0.028,0.193-0.08c0.065-0.066,0.094-0.165,0.071-0.256L33.984,32.213z
	 M17.35,14.638c-0.114-0.113-0.114-0.297,0-0.411c0.112-0.113,0.297-0.113,0.411,0l14.008,14.01c0.112,0.113,0.112,0.301,0,0.412
	c-0.058,0.06-0.129,0.085-0.205,0.085c-0.074,0-0.148-0.025-0.205-0.085L17.35,14.638z M32.492,33.114l-3.205-0.753l3.379-3.379
	l0.752,3.206L32.492,33.114z"/>
</svg>
